<svg width="24" height="24" viewBox="0 0 24 24" fill="none" xmlns="http://www.w3.org/2000/svg">
<path d="M20.183 9.80948H3.81679C3.04141 9.80948 2.7091 8.95621 3.31833 8.55055L11.5014 3.13713C11.6525 3.04735 11.8246 3 11.9999 3C12.1752 3 12.3473 3.04735 12.4984 3.13713L20.6815 8.55055C21.2907 8.95621 20.9584 9.80948 20.183 9.80948Z" stroke="#1DAB87" stroke-width="1.5" stroke-linecap="round" stroke-linejoin="round"/>
<path d="M20.3076 17.5031H3.69219C3.30984 17.5031 2.99988 17.8162 2.99988 18.2025V20.3007C2.99988 20.687 3.30984 21.0001 3.69219 21.0001H20.3076C20.69 21.0001 20.9999 20.687 20.9999 20.3007V18.2025C20.9999 17.8162 20.69 17.5031 20.3076 17.5031Z" stroke="#1DAB87" stroke-width="1.5" stroke-linecap="round" stroke-linejoin="round"/>
<path d="M5.07678 9.80945V17.5029" stroke="#1DAB87" stroke-width="1.5" stroke-linecap="round" stroke-linejoin="round"/>
<path d="M9.69226 9.80945V17.5029" stroke="#1DAB87" stroke-width="1.5" stroke-linecap="round" stroke-linejoin="round"/>
<path d="M14.3076 9.80945V17.5029" stroke="#1DAB87" stroke-width="1.5" stroke-linecap="round" stroke-linejoin="round"/>
<path d="M18.9231 9.80945V17.5029" stroke="#1DAB87" stroke-width="1.5" stroke-linecap="round" stroke-linejoin="round"/>
</svg>
