<svg width="24" height="24" viewBox="0 0 24 24" fill="none" xmlns="http://www.w3.org/2000/svg">
<path d="M16.667 1.65002C17.8807 1.65021 18.75 2.70693 18.75 3.86194V19.9381C18.75 21.0931 17.8807 22.1498 16.667 22.15H7.33301C6.11927 22.1498 5.25 21.0931 5.25 19.9381V3.86194C5.25 2.70693 6.11927 1.65021 7.33301 1.65002H16.667Z" stroke="#1DAB87" stroke-width="1.5" stroke-linecap="round" stroke-linejoin="round"/>
<path d="M11.3333 19.025H12.6666" stroke="#1DAB87" stroke-width="1.5" stroke-linecap="round" stroke-linejoin="round"/>
<path d="M13.8158 8.62674C13.7449 8.42819 13.6355 8.24764 13.4964 8.09389C13.2007 7.76685 12.7708 7.56104 12.2924 7.56104H11.042C10.2457 7.56104 9.6001 8.19989 9.6001 8.98796C9.6001 9.65854 10.0719 10.2386 10.7339 10.3819L12.6376 10.794C13.3792 10.9546 13.9078 11.6049 13.9078 12.3561C13.9078 13.239 13.1845 13.9553 12.2924 13.9553H11.2155C10.5121 13.9553 9.91377 13.5105 9.69202 12.8896" stroke="#1DAB87" stroke-width="1.5" stroke-linecap="round" stroke-linejoin="round"/>
<path d="M11.7537 7.56109V5.96252" stroke="#1DAB87" stroke-width="1.5" stroke-linecap="round" stroke-linejoin="round"/>
<path d="M11.7537 15.5538V13.9552" stroke="#1DAB87" stroke-width="1.5" stroke-linecap="round" stroke-linejoin="round"/>
</svg>
