<svg width="45" height="45" viewBox="0 0 45 45" fill="none" xmlns="http://www.w3.org/2000/svg">
<path d="M43.5 33.8077V40.2692C43.5 41.1261 43.1596 41.9478 42.5537 42.5537C41.9478 43.1596 41.1261 43.5 40.2692 43.5H33.8077M33.8077 1.5H40.2692C41.1261 1.5 41.9478 1.84038 42.5537 2.44627C43.1596 3.05216 43.5 3.87392 43.5 4.73077V11.1923M1.5 11.1923V4.73077C1.5 3.87392 1.84038 3.05216 2.44627 2.44627C3.05216 1.84038 3.87392 1.5 4.73077 1.5H11.1923M11.1923 43.5H4.73077C3.87392 43.5 3.05216 43.1596 2.44627 42.5537C1.84038 41.9478 1.5 41.1261 1.5 40.2692V33.8077M22.5 14.4231V25.7308H17.6538M14.4231 32.1923C16.6026 34.2626 19.4939 35.4169 22.5 35.4169C25.5061 35.4169 28.3974 34.2626 30.5769 32.1923M12.8077 15.2308C12.3616 15.2308 12 14.8692 12 14.4231C12 13.977 12.3616 13.6154 12.8077 13.6154C13.2538 13.6154 13.6154 13.977 13.6154 14.4231C13.6154 14.8692 13.2538 15.2308 12.8077 15.2308ZM32.1923 15.2308C31.7462 15.2308 31.3846 14.8692 31.3846 14.4231C31.3846 13.977 31.7462 13.6154 32.1923 13.6154C32.6384 13.6154 33 13.977 33 14.4231C33 14.8692 32.6384 15.2308 32.1923 15.2308Z" stroke="#1B4E42" stroke-width="3" stroke-linecap="round" stroke-linejoin="round"/>
</svg>
