<svg width="40" height="44" viewBox="0 0 40 44" fill="none" xmlns="http://www.w3.org/2000/svg">
<path d="M32.9252 5.434C32.7474 5.434 32.5696 5.39 32.414 5.302C28.1466 3.124 24.457 2.2 20.034 2.2C15.6332 2.2 11.4546 3.234 7.65395 5.302C7.12052 5.588 6.45374 5.39 6.14257 4.862C6.00395 4.6047 5.97286 4.30384 6.05598 4.02409C6.13911 3.74434 6.32981 3.50804 6.58709 3.366C10.7212 1.144 15.2553 0 20.034 0C24.7682 0 28.9023 1.034 33.4364 3.344C33.9921 3.63 34.1921 4.29 33.9032 4.818C33.8153 5.0014 33.6769 5.15651 33.5039 5.26548C33.3309 5.37446 33.1303 5.43287 32.9252 5.434ZM1.11943 16.984C0.914552 16.9859 0.713148 16.9316 0.53756 16.8271C0.361971 16.7226 0.21906 16.5719 0.12468 16.3919C0.0302991 16.2119 -0.0118623 16.0096 0.00287206 15.8073C0.0176064 15.605 0.0886604 15.4107 0.208153 15.246C2.40855 12.166 5.20906 9.746 8.54301 8.052C15.5221 4.488 24.457 4.466 31.4583 8.03C34.7922 9.724 37.5927 12.122 39.7931 15.18C39.8784 15.2982 39.9392 15.432 39.972 15.5736C40.0047 15.7152 40.0088 15.8618 39.984 16.005C39.9592 16.1482 39.906 16.2851 39.8275 16.4078C39.7489 16.5305 39.6466 16.6366 39.5264 16.72C39.0152 17.072 38.3262 16.962 37.9706 16.456C36.0242 13.7288 33.4387 11.5094 30.4359 9.988C24.0569 6.754 15.8999 6.754 9.54319 10.01C6.52041 11.55 3.98662 13.75 1.98626 16.522C1.80845 16.83 1.47505 16.984 1.11943 16.984ZM15.0109 43.538C14.8651 43.5398 14.7206 43.5113 14.5866 43.4545C14.4526 43.3976 14.3322 43.3137 14.2329 43.208C12.2992 41.294 11.2546 40.062 9.76545 37.4C8.23184 34.694 7.43169 31.394 7.43169 27.852C7.43169 21.318 13.0772 15.994 20.0118 15.994C26.9464 15.994 32.5918 21.318 32.5918 27.852C32.5918 28.468 32.1029 28.952 31.4805 28.952C30.8582 28.952 30.3692 28.468 30.3692 27.852C30.3692 22.528 25.7239 18.194 20.0118 18.194C14.2996 18.194 9.65432 22.528 9.65432 27.852C9.65432 31.02 10.3656 33.946 11.7214 36.322C13.1438 38.852 14.1218 39.93 15.8332 41.646C16.2555 42.086 16.2555 42.768 15.8332 43.208C15.5887 43.428 15.2998 43.538 15.0109 43.538ZM30.9471 39.468C28.3022 39.468 25.9684 38.808 24.0569 37.51C20.7452 35.288 18.7671 31.68 18.7671 27.852C18.7671 27.236 19.2561 26.752 19.8784 26.752C20.5007 26.752 20.9897 27.236 20.9897 27.852C20.9897 30.954 22.59 33.88 25.3016 35.684C26.8797 36.74 28.7245 37.246 30.9471 37.246C31.4805 37.246 32.3696 37.18 33.2586 37.026C33.8587 36.916 34.4366 37.312 34.5477 37.928C34.6589 38.522 34.2588 39.094 33.6365 39.204C32.3696 39.446 31.2583 39.468 30.9471 39.468ZM26.4796 44C26.3907 44 26.2796 43.978 26.1907 43.956C22.6567 42.988 20.3452 41.69 17.9225 39.336C16.3873 37.8356 15.1699 36.047 14.3418 34.0751C13.5136 32.1032 13.0912 29.9875 13.0994 27.852C13.0994 24.288 16.1666 21.384 19.9451 21.384C23.7236 21.384 26.7908 24.288 26.7908 27.852C26.7908 30.206 28.8578 32.12 31.4138 32.12C33.9699 32.12 36.0369 30.206 36.0369 27.852C36.0369 19.558 28.8134 12.826 19.9229 12.826C13.6106 12.826 7.83176 16.302 5.23129 21.692C4.36447 23.474 3.91994 25.564 3.91994 27.852C3.91994 29.568 4.07552 32.274 5.4091 35.794C5.63136 36.366 5.34242 37.004 4.76454 37.202C4.18666 37.422 3.54209 37.114 3.34206 36.564C2.27106 33.7817 1.72124 30.8294 1.71954 27.852C1.71954 25.212 2.23074 22.814 3.23093 20.724C6.18702 14.586 12.7438 10.604 19.9229 10.604C30.0358 10.604 38.2595 18.326 38.2595 27.83C38.2595 31.394 35.1923 34.298 31.4138 34.298C27.6354 34.298 24.5681 31.394 24.5681 27.83C24.5681 25.476 22.5011 23.562 19.9451 23.562C17.3891 23.562 15.322 25.476 15.322 27.83C15.322 31.592 16.789 35.112 19.4783 37.752C21.5898 39.82 23.6124 40.964 26.7463 41.822C27.3464 41.976 27.6798 42.592 27.5242 43.164C27.4131 43.67 26.9464 44 26.4796 44Z" fill="#1DAB87"/>
</svg>
