<?xml version="1.0" encoding="UTF-8"?>
<svg id="Layer_2" data-name="Layer 2" xmlns="http://www.w3.org/2000/svg" viewBox="0 0 343.9 227.89">
  <defs>
    <style>
      .cls-1 {
        fill: #fff;
      }
    </style>
  </defs>
  <g id="Layer_1-2" data-name="Layer 1">
    <g>
      <path class="cls-1" d="M76.81,31.78C76.81,10.19,65.31,0,39.9,0H8.15c-2.04,0-3,.72-3,3L0,100.51c0,1.56.24,3,2.76,3h16.78c1.92,0,2.76-1.08,2.76-3L26.6,15.95h7.91c13.9,0,18.45,4.68,18.45,17.39,0,9.72-6.35,17.51-17.14,17.51h-2.28c-2.28,0-3.24.96-3.24,3l-.6,9.84c0,1.92.36,3,2.88,3h5.87c23.25,0,38.34-14.51,38.34-34.9Z"/>
      <path class="cls-1" d="M179.97,104.95c22.77,0,31.51-25.79,33.55-32.5l.36.36-1.56,30.1c-.72,14.03-10.54,19.55-25.16,19.55-15.82,0-21.81-6.84-24.21-6.84-1.08,0-1.92,1.2-1.92,2.28l-.6,11.15c0,6.36,18.81,9.35,31.51,9.35,22.41,0,42.66-9.24,43.74-31.78l4.55-86.83c0-2.64-.12-3.24-2.87-3.24h-15.94c-2.4,0-2.28,1.44-2.4,3.48-2.04-1.2-7.43-5.04-17.13-5.04-23.37,0-42.3,24.71-42.3,60.21,0,18.23,6.23,29.74,20.37,29.74ZM208.25,30.95c3.71,0,7.79.96,9.59,1.8-.96,9.24-18.69,50.01-28.76,50.01-4.91,0-5.63-5.52-5.63-10.79,0-14.15,3.24-41.02,24.8-41.02Z"/>
      <path class="cls-1" d="M263.14,105.06c21.81,0,32.11-25.31,33.91-32.02l.36.36-1.56,27.11c0,1.56.12,3,3,3h17.49c2.52,0,3.48-.96,3.48-3l4.31-80.6c0-2.16-.48-3.24-3.35-3.24h-16.66c-1.08,0-1.92,1.44-2.04,2.76-1.32-.6-7.55-4.32-16.9-4.32-22.53,0-41.82,23.39-41.82,60.69,0,17.03,5.99,29.26,19.77,29.26ZM291.77,31.06c5.39,0,8.15,1.44,9.71,2.04-.6,8.64-19.29,49.65-29.84,49.65-4.55,0-5.87-5.76-5.99-10.79,0-15.11,3.35-40.9,26.12-40.9Z"/>
      <path class="cls-1" d="M93.22,105.06c21.81,0,32.11-25.31,33.91-32.02l.36.36-1.56,27.11c0,1.56.12,3,3,3h17.49c2.52,0,3.47-.96,3.47-3l4.31-80.6c0-2.16-.48-3.24-3.36-3.24h-16.66c-1.08,0-1.92,1.44-2.04,2.76-1.32-.6-7.55-4.32-16.9-4.32-22.53,0-41.82,23.39-41.82,60.69,0,17.03,5.99,29.26,19.77,29.26ZM121.86,31.06c5.39,0,8.15,1.44,9.71,2.04-.6,8.64-19.29,49.65-29.84,49.65-4.43,0-5.87-5.76-5.99-10.79,0-15.11,3.36-40.9,26.12-40.9Z"/>
      <path class="cls-1" d="M126.53,136.5l.6-10.55c0-1.68-.12-3-3-3H42.89c-1.92,0-3,.96-3,3l-.6,11.27c0,1.08.12,2.4,2.88,2.4h29l-4.67,83.84c0,1.68.36,3,2.88,3h16.54c1.92,0,2.88-1.08,2.88-3l4.43-83.72h29.96c2.28,0,3.36-1.2,3.36-3.24Z"/>
      <path class="cls-1" d="M147.38,137.93c-22.05,0-41.82,15.59-41.82,51.09,0,25.55,13.66,38.86,34.63,38.74,22.77,0,42.66-16.19,42.66-50.25,0-26.27-13.78-39.58-35.47-39.58ZM142.47,211.21c-11.02,0-13.06-11.03-13.06-21.83,0-9.83,1.2-34.66,16.66-34.66,11.38,0,12.94,12.11,12.94,23.39,0,20.99-5.39,33.1-16.54,33.1Z"/>
      <path class="cls-1" d="M263.26,109.27h-17.37c-1.92,0-3.24.6-3.24,2.52l-1.56,29.74c-1.44-.72-6.35-3.6-14.74-3.6-22.41,0-42.3,22.91-42.3,61.17,0,14.75,4.67,28.78,20.73,28.78,22.41,0,31.63-26.27,33.19-32.98l.36.36-1.44,27.94c0,1.68.48,3,2.88,3h17.49c2.52,0,3.47-.96,3.47-3l5.87-111.42c0-2.04-.84-2.52-3.36-2.52ZM212.57,205.58c-4.32,0-6.23-5.04-6.23-12.23,0-24.95,9.71-39.58,25.4-39.58,3.95,0,7.55.96,8.63,1.32,0,14.15-17.26,50.49-27.8,50.49Z"/>
      <path class="cls-1" d="M308.44,137.93c-22.05,0-41.82,15.59-41.82,51.09,0,25.55,13.66,38.86,34.63,38.74,22.77,0,42.66-16.19,42.66-50.25,0-26.27-13.9-39.58-35.47-39.58ZM303.52,211.21c-11.03,0-13.06-11.03-13.06-21.83,0-9.83,1.2-34.66,16.66-34.66,11.38,0,12.94,12.11,12.94,23.39,0,20.99-5.39,33.1-16.54,33.1Z"/>
    </g>
  </g>
</svg>