<svg width="24" height="24" viewBox="0 0 24 24" fill="none" xmlns="http://www.w3.org/2000/svg">
<path d="M17.6 9.9231H6.4C5.6268 9.9231 5 10.543 5 11.3077V19.6154C5 20.3801 5.6268 21 6.4 21H17.6C18.3732 21 19 20.3801 19 19.6154V11.3077C19 10.543 18.3732 9.9231 17.6 9.9231Z" stroke="#0FA3E0" stroke-width="1.5" stroke-linecap="round" stroke-linejoin="round"/>
<path d="M16.9 9.92308V7.84615C16.9 6.56087 16.3838 5.32824 15.4648 4.41941C14.5459 3.51058 13.2996 3 12 3C10.7004 3 9.45411 3.51058 8.53518 4.41941C7.61625 5.32824 7.10001 6.56087 7.10001 7.84615V9.92308" stroke="#0FA3E0" stroke-width="1.5" stroke-linecap="round" stroke-linejoin="round"/>
<path d="M12 16.1539C12.3866 16.1539 12.7 15.8439 12.7 15.4616C12.7 15.0792 12.3866 14.7693 12 14.7693C11.6134 14.7693 11.3 15.0792 11.3 15.4616C11.3 15.8439 11.6134 16.1539 12 16.1539Z" fill="#0FA3E0" stroke="#0FA3E0" stroke-width="1.5" stroke-linecap="round" stroke-linejoin="round"/>
</svg>
