<svg width="24" height="24" viewBox="0 0 24 24" fill="none" xmlns="http://www.w3.org/2000/svg">
<path d="M20.066 10.8952C20.2808 11.1653 20.3996 11.5162 20.3996 11.8801C20.3996 12.2439 20.2808 12.5949 20.066 12.865C18.7065 14.5261 15.612 17.7602 11.9996 17.7602C8.3872 17.7602 5.2927 14.5261 3.93319 12.865C3.71847 12.5949 3.59961 12.2439 3.59961 11.8801C3.59961 11.5162 3.71847 11.1653 3.93319 10.8952C5.2927 9.23404 8.3872 6 11.9996 6C15.612 6 18.7065 9.23404 20.066 10.8952Z" stroke="#1DAB87" stroke-width="1.5" stroke-linecap="round" stroke-linejoin="round"/>
<path d="M11.9997 14.4933C13.4299 14.4933 14.5892 13.3232 14.5892 11.8799C14.5892 10.4366 13.4299 9.2666 11.9997 9.2666C10.5695 9.2666 9.41016 10.4366 9.41016 11.8799C9.41016 13.3232 10.5695 14.4933 11.9997 14.4933Z" stroke="#1DAB87" stroke-width="1.5" stroke-linecap="round" stroke-linejoin="round"/>
</svg>
