<svg width="24" height="24" viewBox="0 0 24 24" fill="none" xmlns="http://www.w3.org/2000/svg">
<path d="M20.0664 10.8952C20.2811 11.1653 20.4 11.5162 20.4 11.8801C20.4 12.2439 20.2811 12.5949 20.0664 12.865C18.7069 14.5261 15.6124 17.7602 12 17.7602C8.3876 17.7602 5.2931 14.5261 3.93359 12.865C3.71886 12.5949 3.60001 12.2439 3.60001 11.8801C3.60001 11.5162 3.71886 11.1653 3.93359 10.8952C5.2931 9.23404 8.3876 6 12 6C15.6124 6 18.7069 9.23404 20.0664 10.8952Z" stroke="#0FA3E0" stroke-width="1.5" stroke-linecap="round" stroke-linejoin="round"/>
<path d="M11.9999 14.4934C13.4301 14.4934 14.5895 13.3234 14.5895 11.8801C14.5895 10.4368 13.4301 9.26672 11.9999 9.26672C10.5698 9.26672 9.41039 10.4368 9.41039 11.8801C9.41039 13.3234 10.5698 14.4934 11.9999 14.4934Z" stroke="#0FA3E0" stroke-width="1.5" stroke-linecap="round" stroke-linejoin="round"/>
</svg>
