<svg width="24" height="24" viewBox="0 0 24 24" fill="none" xmlns="http://www.w3.org/2000/svg">
<path d="M18.9231 15.3478V17.7826C18.9231 18.1055 18.7772 18.4151 18.5175 18.6434C18.2579 18.8717 17.9057 19 17.5385 19H4.38462C4.01739 19 3.66521 18.8717 3.40554 18.6434C3.14588 18.4151 3 18.1055 3 17.7826V8.65217C3 6.63513 4.85974 5 7.15385 5H16.1538V8.04348" stroke="#1DAB87" stroke-width="1.5" stroke-linecap="round" stroke-linejoin="round"/>
<path d="M20.3077 11.6958H15.4615C15.0792 11.6958 14.7692 11.9683 14.7692 12.3045V14.7393C14.7692 15.0755 15.0792 15.348 15.4615 15.348H20.3077C20.69 15.348 21 15.0755 21 14.7393V12.3045C21 11.9683 20.69 11.6958 20.3077 11.6958Z" stroke="#1DAB87" stroke-width="1.5" stroke-linecap="round" stroke-linejoin="round"/>
<path d="M18.9231 11.6958V9.26097C18.9231 8.9381 18.7772 8.62845 18.5175 8.40015C18.2579 8.17184 17.9057 8.04358 17.5385 8.04358H16.1538H7.15384" stroke="#1DAB87" stroke-width="1.5" stroke-linecap="round" stroke-linejoin="round"/>
</svg>
